<svg xmlns="http://www.w3.org/2000/svg" viewBox="0 0 512 157">
  <path fill="currentColor"
    d="M75 70h80l-11 50c-28 30-58 42-89 35-31-6-49-24-55-52l12-59C33 13 61-2 94 0c34 2 55 16 65 43l-29 12c-7-19-21-28-43-28-21 0-37 9-47 26l-9 44c2 17 14 28 33 32s37-2 54-20l3-14H70l5-25ZM266 4c11 1 20 4 26 9 7 5 11 13 13 22l-6 29-10 12c-3 2-7 6-15 10l10 11c3 3 4 8 5 15l-9 41h-29l7-35c1-3-1-7-4-11-4-4-9-7-15-8h-39l-11 54h-29L191 4h75Zm97 0-32 149h-29L334 4h29ZM256 30h-41l-10 45h42c6-1 11-3 14-5l10-9 3-18c-1-4-3-8-7-10-3-2-7-3-11-3ZM383 4h129l-5 26h-50l-26 123h-29l26-123h-51l6-26Z" />
</svg>