<svg xmlns="http://www.w3.org/2000/svg" aria-hidden="true" role="img"
  style='display:none'>
  <defs>
    <!-- country flags -->
    <symbol viewBox="0 0 512 512" id="icon-at">
      <path fill="#FFF" d="M0 136h512v240H0z"/><path fill="#D80027" d="M0 344h512v168H0zM0 0h512v168H0z"/>
    </symbol>
    <symbol viewBox="0 0 512 512" id="icon-au">
      <path fill="#00008B" d="M0 0h512v512H0z" />
      <path fill="#fff"
        d="M256 0v32l-95 96 95 93.5V256h-33.5L127 162l-93 94H0v-34l93-93.5L0 37V0h31l96 94 93-94z" />
      <path fill="red"
        d="m92 162 5.5 17L21 256H0v-1.5zm62-6 27 4 75 73.5V256zM256 0l-96 98-2-22 75-76zM0 .5 96.5 95 67 91 0 24.5z" />
      <path fill="#fff" d="M88 0v256h80V0zM0 88v80h256V88z" />
      <path fill="red" d="M0 104v48h256v-48zM104 0v256h48V0z" />
      <path fill="#fff"
        d="m202 402.8-45.8 5.4 4.6 45.9-32.8-32.4-33 32.2 4.9-45.9-45.8-5.8L93 377.4 69 338l43.6 15 15.8-43.4 15.5 43.5 43.7-14.7-24.3 39.2 38.8 25.1Zm222.7 8-20.5 2.6 2.2 20.5-14.8-14.4-14.7 14.5 2-20.5-20.5-2.4 17.3-11.2-10.9-17.5 19.6 6.5 6.9-19.5 7.1 19.4 19.5-6.7-10.7 17.6zM415 293.6l2.7-13-9.8-9 13.2-1.5 5.5-12.1 5.5 12.1 13.2 1.5-9.8 9 2.7 13-11.6-6.6zm-84.1-60-20.3 2.2 1.8 20.3-14.4-14.5-14.8 14.1 2.4-20.3-20.2-2.7 17.3-10.8-10.5-17.5 19.3 6.8 7.2-19.1 6.7 19.3 19.4-6.3-10.9 17.3zm175.8-32.8-20.9 2.7 2.3 20.9-15.1-14.7-15 14.8 2.1-21-20.9-2.4 17.7-11.5-11.1-17.9 20 6.7 7-19.8 7.2 19.8 19.9-6.9-11 18zm-82.1-83.5-20.7 2.3 1.9 20.8-14.7-14.8L376 140l2.4-20.7-20.7-2.8 17.7-11-10.7-17.9 19.7 6.9 7.3-19.5 6.8 19.7 19.8-6.5-11.1 17.6z" />
    </symbol>
    <symbol viewBox="0 0 512 512" id="icon-be">
      <path fill="#FFDA44" d="M136 512V0h240v512z"/><path fill="#D80027" d="M344 512V0h168v512z"/><path fill="#333" d="M0 512V0h168v512z"/>
    </symbol>
    <symbol viewBox="0 0 512 512" id="icon-dk">
<path fill="#D80027" d="M0 0h512v512H0z"/><path fill="#EEE" d="M512 288v-64H192V0h-64v224H0v64h128v224h64V288z"/>
    </symbol>
    <symbol viewBox="0 0 512 512" id="icon-gr">
<path fill="#338AF3" d="M0 0h512v512H0z"/><path fill="#EEE" fill-rule="evenodd" d="M512 64H0v64h512zm0 128H0v64h512zM0 320h512v64H0zm512 128H0v64h512z" clip-rule="evenodd"/><path fill="#338AF3" d="M0 0h320v320H0z"/><path fill="#FFF" d="M128 0h64v320h-64z"/><path fill="#FFF" d="M320 128v64H0v-64z"/>
    </symbol>
    <symbol viewBox="0 0 512 512" id="icon-ie">
<path fill="#FFF" d="M136 512V0h240v512z"/><path fill="#FF9811" d="M344 512V0h168v512z"/><path fill="#6DA544" d="M0 512V0h168v512z"/>
    </symbol>
    <symbol viewBox="0 0 512 512" id="icon-il">
<path fill="#FFF" d="M0 0h512v512H0z"/><path fill="#0052B4" fill-rule="evenodd" d="M512 55.7H0v66.7h512zm0 333.9H0v66.7h512z" clip-rule="evenodd"/><path fill="#0052B4" d="M352.4 200.3H288l-32-55.6-32.1 55.6h-64.3l32.1 55.7-32 55.7h64.2l32.1 55.6 32.1-55.6h64.3L320.3 256zm-57 55.7-19.7 34.2h-39.4L216.5 256l19.8-34.2h39.4zM256 187.6l7.3 12.7h-14.6zm-59.2 34.2h14.7l-7.4 12.7zm0 68.4 7.3-12.7 7.4 12.7zm59.2 34.2-7.3-12.7h14.6zm59.2-34.2h-14.7l7.4-12.7zm-14.7-68.4h14.7l-7.3 12.7z"/>
    </symbol>
    <symbol viewBox="0 0 512 512" id="icon-it">
      <path fill="#FFF" d="M0 0h512v512H0z"/>
<path fill="#D80027" d="M344 512V0h168v512z"/><path fill="#6DA544" d="M0 512V0h168v512z"/>
    </symbol>
    <symbol viewBox="0 0 512 512" id="icon-lu">
<path fill="#FFF" d="M 0 0H512V512H0Z"/><path fill="#338AF3" d="M0 344h512v168H0z"/><path fill="#D80027" d="M0 0h512v168H0z"/>
    </symbol>
    <symbol viewBox="0 0 512 512" id="icon-no">
<path fill="#D80027" d="M 0 0H512V512H0Z"/><path fill="#EEE" d="M512 320V192H224V0H96v192H0v128h96v192h128V320z"/><path fill="#0052B4" d="M512 288v-64H192V0h-64v224H0v64h128v224h64V288z"/>
    </symbol>
    <symbol viewBox="0 0 512 512" id="icon-pl">
<path fill="#D80027" d="M0 204.9h512V512H0z"/><path fill="#EEE" d="M0 0h512v256H0z"/>
    </symbol>
    <symbol viewBox="0 0 512 512" id="icon-pt">
<path fill="#D80027" d="M136 512V0h240v512z"/><path fill="#D80027" d="M344 512V0h168v512z"/><path fill="#496E2D" d="M0 512V0h168v512z"/><path fill="#FFDA44" d="M167 345a89 89 0 1 0 0-178 89 89 0 0 0 0 178"/><path fill="#D80027" d="M108.5 202.6v64.9a58.4 58.4 0 1 0 116.9 0v-65z"/><path fill="#EEE" d="M167 304.2a34.4 34.4 0 0 1-34.3-34.3v-45.3h68.6v45.1A34.4 34.4 0 0 1 167 304z"/><path fill="#0052B4" fill-rule="evenodd" d="M167 249.6c-3.7 0-6.8-3-6.8-6.7v-9h13.6v8.9c0 3.8-3.1 6.8-6.8 6.8m0 43.2a7 7 0 0 1-6.8-6.8v-8.9h13.6v8.9c0 3.7-3.1 6.7-6.8 6.7zm-6.8-28.4c0 3.8 3.1 6.8 6.8 6.8s6.8-3.1 6.8-6.8v-8.9h-13.6zm-13 6.8c-3.7 0-6.7-3-6.7-6.8v-8.9H154v8.9c0 3.7-3 6.8-6.8 6.8m32.8-6.8a6.7 6.7 0 1 0 13.5 0v-8.9H180z" clip-rule="evenodd"/>
    </symbol>
    <symbol viewBox="0 0 512 512" id="icon-es">
<g clip-path="url(#a)"><path fill="#FFDA44" d="M512 128v256H0V128z"/><path fill="#D80027" d="M512 368v144H0V368zm0-368v144H0V0z"/><path fill="#EEE" d="M144 304h-16v-80h16zm128 0h16v-80h-16z"/><path fill="#D80027" d="M122 248a4 4 0 1 0 0 8h172a4 4 0 1 0 0-8zm0 24a4 4 0 1 0 0 8h28a4 4 0 1 0 0-8zm144 0a4 4 0 1 0 0 8h28a4 4 0 1 0 0-8z"/><path fill="#EEE" fill-rule="evenodd" d="M196 168c-7 0-13 5-15 11l-5-1c-9 0-16 7-16 16s7 16 16 16c7 0 13-4 15-11a16 16 0 0 0 17-4 16 16 0 0 0 17 4 16 16 0 1 0 10-20 16 16 0 0 0-27-5q-4.5-6-12-6m0 8c5 0 8 4 8 8 0 5-3 8-8 8-4 0-8-3-8-8 0-4 4-8 8-8m24 0c5 0 8 4 8 8 0 5-3 8-8 8-4 0-8-3-8-8 0-4 4-8 8-8m-44 10 4 1 4 8c0 4-4 7-8 7s-8-3-8-8c0-4 4-8 8-8m64 0c5 0 8 4 8 8 0 5-3 8-8 8-4 0-8-3-8-7l4-8zm-32 142c26.5 0 48-14.3 48-32 0-9.6-6.3-18.1-16.2-24H256v-48h-48v40c-26.5 0-48 14.3-48 32s21.5 32 48 32" clip-rule="evenodd"/><path fill="#FF9811" d="M200 160h16v32h-16z"/><path fill="#D80027" fill-rule="evenodd" d="m248 208-8 8h-64l-8-8c0-13 18-24 40-24s40 11 40 24m-112-16a8 8 0 0 1 8 8v8a8 8 0 0 1-16 0v-8a8 8 0 0 1 8-8m144 0a8 8 0 0 1 8 8v8a8 8 0 0 1-16 0v-8a8 8 0 0 1 8-8m-72 80v24a24 24 0 0 0 48 0v-24zm0 0h-48v-48h48zm34-30a10 10 0 1 0-20 0v12a10 10 0 1 0 20 0z" clip-rule="evenodd"/><path fill="#FF9811" fill-rule="evenodd" d="M128 208h16a8 8 0 0 1 0 16h-16a8 8 0 0 1 0-16m144 0h16a8 8 0 0 1 0 16h-16a8 8 0 0 1 0-16m-128 96h-16a8 8 0 0 0 0 16h16a8 8 0 0 0 0-16m128 0h16a8 8 0 0 1 0 16h-16a8 8 0 0 1 0-16m-112-32v24c0 8 4 14 9 19l5-6 5 10q5 1.2 10 0l5-10 5 6c6-5 9-11 9-19v-24h-9l-5 8-5-8h-10l-5 8-5-8zm8-32v-8h32v8h-8v16h8v8h-32v-8h8v-16zm72-24h-64v8h64z" clip-rule="evenodd"/><path fill="#D80027" d="M169 272v43q4.6 3 10 4v-47zm20 0v47q5.4-1 10-4v-43z"/><path fill="#FFDA44" fill-rule="evenodd" d="M186 208a6 6 0 1 0 0-12 6 6 0 0 0 0 12m22 0a6 6 0 1 0 0-12 6 6 0 0 0 0 12m28-6a6 6 0 1 1-12 0 6 6 0 0 1 12 0" clip-rule="evenodd"/><path fill="#0052B4" fill-rule="evenodd" d="M208 288a16 16 0 1 0 0-32 16 16 0 0 0 0 32m80 32h-16a8 8 0 0 0 0 16h16a8 8 0 0 0 0-16m-160 0h16a8 8 0 0 1 0 16h-16a8 8 0 0 1 0-16" clip-rule="evenodd"/></g><defs><clipPath id="a"><path fill="#fff" d="M0 0h512v512H0z"/></clipPath></defs>
    </symbol>
    <symbol viewBox="0 0 512 512" id="icon-se">
<path fill="#0052B4" d="M0 0h512v512H0z"/><path fill="#FFDA44" d="M512 288v-64H192V0h-64v224H0v64h128v224h64V288z"/>
    </symbol>
    <symbol viewBox="0 0 512 512" id="icon-us">
      <path fill="#FFF" d="M0 0h512v512H0z"/><path fill="#D80027" d="M0 122.4V55.7h512v66.7zM0 256v-66.8h512V256zm0 133.6v-66.8h512v66.8zM0 512h512v-55.7H0z"/><path fill="#0052B4" d="M0 0h256v256H0z"/><path fill="#EEE" fill-rule="evenodd" d="m44.8 6.4 8.6 26.5h28L58.6 49.3 67.4 76 44.8 59.5 22.2 75.9 31 49.3 8.3 33h27.9zm83.2 0 8.6 26.5h28l-22.7 16.4 8.7 26.6L128 59.5l-22.6 16.4 8.6-26.6L91.6 33h27.9zm91.8 26.5-8.6-26.5-8.6 26.5h-28l22.7 16.4-8.7 26.6 22.6-16.4 22.6 16.4-8.7-26.6L247.8 33zm-175 56.7 8.6 26.5h28l-22.7 16.4 8.7 26.6-22.6-16.4L22.2 159l8.7-26.6L8.3 116h27.9zm91.8 26.5L128 89.6l-8.6 26.5h-28l22.6 16.4-8.6 26.6 22.6-16.4 22.6 16.4-8.7-26.6 22.6-16.4zm74.6-26.5 8.6 26.5h28L225 132.5l8.7 26.6-22.6-16.4-22.6 16.4 8.7-26.6-22.6-16.4h27.9zM53.4 199.3l-8.6-26.5-8.6 26.5h-28L31 215.7l-8.7 26.6 22.6-16.4 22.6 16.4-8.7-26.6 22.6-16.4zm74.6-26.5 8.6 26.5h28l-22.7 16.4 8.7 26.6-22.6-16.4-22.6 16.4 8.6-26.6-22.5-16.4h27.9zm91.8 26.5-8.6-26.5-8.6 26.5h-28l22.7 16.4-8.7 26.6 22.6-16.4 22.6 16.4-8.7-26.6 22.6-16.4z" clip-rule="evenodd"/>
    </symbol>
    <symbol viewBox="0 0 512 512" id="icon-ru">
      <path fill="#fff" d="M0 0h512v170.7H0z" />
      <path fill="#0039a6" d="M0 170.7h512v170.6H0z" />
      <path fill="#d52b1e" d="M0 341.3h512V512H0z" />
    </symbol>
    <symbol viewBox="0 0 512 512" id="icon-gb">
      <path fill="#012169" d="M0 0h512v512H0z" />
      <path fill="#FFF"
        d="M512 0v64L322 256l190 187v69h-67L254 324 68 512H0v-68l186-187L0 74V0h62l192 188L440 0z" />
      <path fill="#C8102E"
        d="m184 324 11 34L42 512H0v-3zm124-12 54 8 150 147v45zM512 0 320 196l-4-44L466 0zM0 1l193 189-59-8L0 49z" />
      <path fill="#FFF" d="M176 0v512h160V0zM0 176v160h512V176z" />
      <path fill="#C8102E" d="M0 208v96h512v-96zM208 0v512h96V0z" />
    </symbol>
    <symbol viewBox="0 0 512 512" id="icon-jp">
      <defs>
        <clipPath id="jp-a">
          <path fill-opacity=".7" d="M177.2 0h708.6v708.7H177.2z" />
        </clipPath>
      </defs>
      <g fill-rule="evenodd" stroke-width="1pt" clip-path="url(#jp-a)"
        transform="translate(-128)scale(.72249)">
        <path fill="#fff" d="M0 0h1063v708.7H0z" />
        <circle cx="523.1" cy="344.1" r="194.9" fill="#bc002d"
          transform="translate(-59.7 -34.5)scale(1.1302)" />
      </g>
    </symbol>
    <symbol viewBox="0 0 512 512" id="icon-nl">
      <path fill="#ae1c28" d="M0 0h512v170.7H0z" />
      <path fill="#fff" d="M0 170.7h512v170.6H0z" />
      <path fill="#21468b" d="M0 341.3h512V512H0z" />
    </symbol>
    <symbol viewBox="0 0 512 512" id="icon-fr">
      <path fill="#fff" d="M0 0h512v512H0z" />
      <path fill="#000091" d="M0 0h170.7v512H0z" />
      <path fill="#e1000f" d="M341.3 0H512v512H341.3z" />
    </symbol>
    <symbol viewBox="0 0 512 512" id="icon-de">
      <path fill="#fc0" d="M0 341.3h512V512H0z" />
      <path fill="#000001" d="M0 0h512v170.7H0z" />
      <path fill="red" d="M0 170.7h512v170.6H0z" />
    </symbol>

    <!-- general -->
    <symbol viewBox="0 0 24 24" id="icon-star-empty">
      <path stroke="currentColor" stroke-width="2"
        d="M11.083 5.104c.35-.8 1.485-.8 1.834 0l1.752 4.022a1 1 0 0 0 .84.597l4.463.342c.9.069 1.255 1.2.556 1.771l-3.33 2.723a1 1 0 0 0-.337 1.016l1.03 4.119c.214.858-.71 1.552-1.474 1.106l-3.913-2.281a1 1 0 0 0-1.008 0L7.583 20.8c-.764.446-1.688-.248-1.474-1.106l1.03-4.119A1 1 0 0 0 6.8 14.56l-3.33-2.723c-.698-.571-.342-1.702.557-1.771l4.462-.342a1 1 0 0 0 .84-.597l1.753-4.022Z"
        fill="none" />

    </symbol>
    <symbol viewBox="0 0 24 24" id="icon-star-half">
      <path fill-rule="evenodd"
        d="M13 4.024v-.005c0-.053.002-.353-.217-.632a1.013 1.013 0 0 0-1.176-.315c-.192.076-.315.193-.35.225-.052.05-.094.1-.122.134a4.358 4.358 0 0 0-.31.457c-.207.343-.484.84-.773 1.375a168.719 168.719 0 0 0-1.606 3.074h-.002l-4.599.367c-1.775.14-2.495 2.339-1.143 3.488L6.17 15.14l-1.06 4.406c-.412 1.72 1.472 3.078 2.992 2.157l3.94-2.388c.592-.359.958-.996.958-1.692v-13.6Zm-2.002 0v.025-.025Z"
        clip-rule="evenodd" fill="currentColor" />
    </symbol>
    <symbol viewBox="0 0 24 24" id="icon-star-full">
      <path fill="currentColor"
        d="M13.849 4.22c-.684-1.626-3.014-1.626-3.698 0L8.397 8.387l-4.552.361c-1.775.14-2.495 2.331-1.142 3.477l3.468 2.937-1.06 4.392c-.413 1.713 1.472 3.067 2.992 2.149L12 19.35l3.897 2.354c1.52.918 3.405-.436 2.992-2.15l-1.06-4.39 3.468-2.938c1.353-1.146.633-3.336-1.142-3.477l-4.552-.36-1.754-4.17Z" />

    </symbol>
    <symbol viewBox="0 0 24 24" id="icon-link">
      <path
        d="M14 13.9633H16V7.96331H10V9.96331H12.5858L7.25623 15.2929L8.67044 16.7071L14 11.3775V13.9633Z"
        fill="currentColor" />
      <path fill-rule="evenodd" clip-rule="evenodd"
        d="M23 19C23 21.2091 21.2091 23 19 23H5C2.79086 23 1 21.2091 1 19V5C1 2.79086 2.79086 1 5 1H19C21.2091 1 23 2.79086 23 5V19ZM19 21H5C3.89543 21 3 20.1046 3 19V5C3 3.89543 3.89543 3 5 3H19C20.1046 3 21 3.89543 21 5V19C21 20.1046 20.1046 21 19 21Z"
        fill="currentColor" />
    </symbol>
    <symbol viewBox="0 0 24 24" id="icon-expand">
      <path
        d="M12 4C11.4477 4 11 4.44772 11 5V11H5C4.44772 11 4 11.4477 4 12C4 12.5523 4.44772 13 5 13H11V19C11 19.5523 11.4477 20 12 20C12.5523 20 13 19.5523 13 19V13H19C19.5523 13 20 12.5523 20 12C20 11.4477 19.5523 11 19 11H13V5C13 4.44772 12.5523 4 12 4Z"
        fill="currentColor" />
    </symbol>
    <symbol viewBox="0 0 24 24" id="icon-collapse">
      <path
        d="M4 12C4 11.4477 4.44772 11 5 11H19C19.5523 11 20 11.4477 20 12C20 12.5523 19.5523 13 19 13H5C4.44772 13 4 12.5523 4 12Z"
        fill="currentColor" />
    </symbol>
    <symbol viewBox="0 0 24 24" id="icon-download">
      <path
        d="M11 5C11 4.44772 11.4477 4 12 4C12.5523 4 13 4.44772 13 5V12.1578L16.2428 8.91501L17.657 10.3292L12.0001 15.9861L6.34326 10.3292L7.75748 8.91501L11 12.1575V5Z"
        fill="currentColor" />
      <path
        d="M4 14H6V18H18V14H20V18C20 19.1046 19.1046 20 18 20H6C4.89543 20 4 19.1046 4 18V14Z"
        fill="currentColor" />
    </symbol>
    <symbol viewBox="0 0 24 24" id="icon-close">
      <path
        d="M6.2253 4.81108C5.83477 4.42056 5.20161 4.42056 4.81108 4.81108C4.42056 5.20161 4.42056 5.83477 4.81108 6.2253L10.5858 12L4.81114 17.7747C4.42062 18.1652 4.42062 18.7984 4.81114 19.1889C5.20167 19.5794 5.83483 19.5794 6.22535 19.1889L12 13.4142L17.7747 19.1889C18.1652 19.5794 18.7984 19.5794 19.1889 19.1889C19.5794 18.7984 19.5794 18.1652 19.1889 17.7747L13.4142 12L19.189 6.2253C19.5795 5.83477 19.5795 5.20161 19.189 4.81108C18.7985 4.42056 18.1653 4.42056 17.7748 4.81108L12 10.5858L6.2253 4.81108Z"
        fill="currentColor" />
    </symbol>
    <symbol viewBox="0 0 24 24" id="icon-arrow-down">
      <path
        d="M11.0001 3.67157L13.0001 3.67157L13.0001 16.4999L16.2426 13.2574L17.6568 14.6716L12 20.3284L6.34314 14.6716L7.75735 13.2574L11.0001 16.5001L11.0001 3.67157Z"
        fill="currentColor" />
    </symbol>
    <symbol viewBox="0 0 24 24" id="icon-arrow-up">
      <path
        d="M17.6568 8.96219L16.2393 10.3731L12.9843 7.10285L12.9706 20.7079L10.9706 20.7059L10.9843 7.13806L7.75404 10.3532L6.34314 8.93572L12.0132 3.29211L17.6568 8.96219Z"
        fill="currentColor" />
    </symbol>
    <symbol viewBox="0 0 24 24" id="icon-arrow-left">
      <path
        d="M20.3284 11.0001V13.0001L7.50011 13.0001L10.7426 16.2426L9.32842 17.6568L3.67157 12L9.32842 6.34314L10.7426 7.75735L7.49988 11.0001L20.3284 11.0001Z"
        fill="currentColor" />
    </symbol>
    <symbol viewBox="0 0 24 24" id="icon-arrow-right">
      <path
        d="M15.0378 6.34317L13.6269 7.76069L16.8972 11.0157L3.29211 11.0293L3.29413 13.0293L16.8619 13.0157L13.6467 16.2459L15.0643 17.6568L20.7079 11.9868L15.0378 6.34317Z"
        fill="currentColor" />
    </symbol>

    <!-- branding -->
    <symbol viewBox="0 0 512 157" id="icon-brand-full">
      <path fill="currentColor"
        d="M75 70h80l-11 50c-28 30-58 42-89 35-31-6-49-24-55-52l12-59C33 13 61-2 94 0c34 2 55 16 65 43l-29 12c-7-19-21-28-43-28-21 0-37 9-47 26l-9 44c2 17 14 28 33 32s37-2 54-20l3-14H70l5-25ZM266 4c11 1 20 4 26 9 7 5 11 13 13 22l-6 29-10 12c-3 2-7 6-15 10l10 11c3 3 4 8 5 15l-9 41h-29l7-35c1-3-1-7-4-11-4-4-9-7-15-8h-39l-11 54h-29L191 4h75Zm97 0-32 149h-29L334 4h29ZM256 30h-41l-10 45h42c6-1 11-3 14-5l10-9 3-18c-1-4-3-8-7-10-3-2-7-3-11-3ZM383 4h129l-5 26h-50l-26 123h-29l26-123h-51l6-26Z" />
    </symbol>

    <symbol viewBox="0 0 159 159" id="icon-brand-symbol">
      <path fill="currentColor"
        d="M75 70h80l-11 50c-28 30-58 42-89 35-31-6-49-24-55-52l12-59C33 13 61-2 94 0c34 2 55 16 65 43l-29 12c-7-19-21-28-43-28-21 0-37 9-47 26l-9 44c2 17 14 28 33 32s37-2 54-20l3-14H70l5-25Z" />
    </symbol>
  </defs>
</svg>
